<?xml version="1.0" standalone="no"?><!DOCTYPE svg PUBLIC "-//W3C//DTD SVG 1.1//EN" "http://www.w3.org/Graphics/SVG/1.1/DTD/svg11.dtd"><svg t="1697127415245" class="icon" viewBox="0 0 1024 1024" version="1.1" xmlns="http://www.w3.org/2000/svg" p-id="1256" width="128" height="128" xmlns:xlink="http://www.w3.org/1999/xlink"><path d="M411.21845937 371.16989957C398.89582558 371.16989957 388.77366212 381.29206304 388.77366212 393.61469683v236.77060634C388.77366212 642.70793696 398.89582558 652.83010043 411.21845937 652.83010043h201.56308125c12.32263378 0 22.44479724-10.12216347 22.44479727-22.44479727V460.50899455L552.04855979 371.16989957h-140.83010042z" fill="#45B058" p-id="1257"></path><path d="M474.15191052 608.38059997c-0.88018812 0-1.76037626-0.44009407-2.20047031-0.88018812l-16.28348038-22.00470319-16.72357441 22.00470319c-0.44009407 0.44009407-1.32028221 0.88018812-2.20047033 0.88018811-1.76037626 0-3.08065845-1.32028221-3.08065845-3.08065844 0-0.44009407 0-1.32028221 0.44009407-1.76037624l17.16366848-22.44479728-15.8433863-21.56460911c-0.44009407-0.44009407-0.88018812-0.88018812-0.88018811-1.76037625 0-1.32028221 1.32028221-3.08065845 3.08065843-3.08065845 1.32028221 0 2.20047032 0.44009407 2.64056438 1.32028219l15.40329224 20.24432694 14.96319816-20.24432694c0.44009407-0.88018812 1.32028221-1.32028221 2.20047034-1.32028219 1.76037626 0 3.52075251 1.32028221 3.52075251 3.08065845 0 0.88018812-0.44009407 1.32028221-0.44009407 1.76037625l-16.28348036 21.12451506 17.16366848 22.88489133c0.44009407 0.44009407 0.88018812 1.32028221 0.88018813 1.76037625 0 1.76037626-1.76037626 3.08065845-3.5207525 3.08065843z m44.00940637-0.44009407H494.39623745c-2.64056438 0-4.84103468-2.20047032-4.8410347-4.84103467V557.76978264c0-1.76037626 1.32028221-3.08065845 3.5207525-3.08065844 1.76037626 0 3.08065845 1.32028221 3.08065844 3.08065844v44.44950046h22.0047032c1.76037626 0 3.08065845 1.32028221 3.08065846 2.64056437 0 1.76037626-1.32028221 3.08065845-3.08065846 3.08065843z m30.80658445 0.88018813c-7.92169315 0-14.08301003-2.64056438-18.48395066-6.60141093-0.88018812-0.44009407-0.88018812-1.32028221-0.88018813-2.20047034 0-1.76037626 0.88018812-3.52075251 3.08065845-3.52075251 0.44009407 0 1.32028221 0.44009407 1.76037624 0.88018813 3.52075251 3.08065845 8.80188127 5.72122283 14.96319817 5.72122285 9.24197535 0 12.32263378-5.28112875 12.3226338-9.24197535 0-13.64291598-31.24667854-6.16131688-31.24667853-24.64526758 0-8.80188127 7.48159909-14.96319818 18.04385663-14.96319818 6.60141096 0 12.76272785 2.20047032 16.72357442 5.72122285 0.88018812 0.44009407 1.32028221 1.32028221 1.32028217 2.2004703 0 1.76037626-1.32028221 3.52075251-3.08065845 3.52075253-0.44009407 0-1.32028221-0.44009407-1.76037623-0.88018814-3.96084656-3.08065845-8.80188127-4.40094064-13.64291599-4.40094064-6.60141096 0-11.0023516 3.08065845-11.00235158 8.36178721 0 11.88253973 31.24667854 4.84103468 31.24667852 24.64526758 0 7.48159909-5.28112875 15.40329224-19.36413883 15.40329222z" fill="#FFFFFF" p-id="1258"></path><path d="M635.22633788 460.9490886v4.40094063H578.8942977s-28.1660201-5.72122283-27.28583196-29.92639634c0 0 0.88018812 25.5254557 26.40564383 25.52545571h57.21222831z" fill="#349C42" p-id="1259"></path><path d="M551.60846574 371.16989957v64.25373332c0 7.04150502 5.28112875 25.5254557 27.28583196 25.52545571H635.22633788L551.60846574 371.16989957z" fill="#FFFFFF" p-id="1260"></path></svg>