<?xml version="1.0" standalone="no"?><!DOCTYPE svg PUBLIC "-//W3C//DTD SVG 1.1//EN" "http://www.w3.org/Graphics/SVG/1.1/DTD/svg11.dtd"><svg t="1718758419703" class="icon" viewBox="0 0 1024 1024" version="1.1" xmlns="http://www.w3.org/2000/svg" p-id="1649" xmlns:xlink="http://www.w3.org/1999/xlink" width="40" height="40"><path d="M354.71968275 460.34551281h314.63659697v102.24549966H354.71968275z" fill="#F95F5D" p-id="1650"></path><path d="M669.35627972 460.34551281V378.87575176c0-10.10300999-9.03953525-19.10456402-19.78822633-19.10456402H374.46992787c-10.74869108 0-19.78822635 9.00155402-19.78822635 19.10456402V460.34551281h314.6745782z m0 1e-8" fill="#55C7F7" p-id="1651"></path><path d="M354.71968275 562.59101247v81.46976102c0 10.10300999 8.96357278 19.10456402 19.63630138 19.10456402h275.36399422c10.6727286 0 19.63630138-9.00155402 19.63630137-19.10456403V562.59101247H354.71968275z m0-1e-8" fill="#7ECF3B" p-id="1652"></path><path d="M477.740921 359.77118774h70.22731383V663.16533751H477.740921z" fill="#FDAF42" p-id="1653"></path><path d="M547.96823483 491.26224264v42.69091441H474.39857183V491.26224264h73.56966301m11.81216582-17.43338943H462.58640599c-1.67117458 0-4.4817864 1.67117458-4.48178638 4.48178638v67.98642066c0 1.67117458 1.67117458 4.4817864 4.48178638 4.48178638h97.19399467c1.67117458 0 4.4817864-1.67117458 4.48178638-4.48178638v-67.98642065c-1.10145597-3.34234917-2.8106118-4.4817864-4.48178638-4.48178638z m0 0" fill="#FFFFFF" p-id="1654"></path></svg>