<?xml version="1.0" standalone="no"?><!DOCTYPE svg PUBLIC "-//W3C//DTD SVG 1.1//EN" "http://www.w3.org/Graphics/SVG/1.1/DTD/svg11.dtd"><svg t="1697128714319" class="icon" viewBox="0 0 1024 1024" version="1.1" xmlns="http://www.w3.org/2000/svg" p-id="1286" width="128" height="128" xmlns:xlink="http://www.w3.org/1999/xlink"><path d="M622.38298055 668.6726173H401.61701945a17.82373557 17.82373557 0 0 1-17.80370642-17.80370642V373.13108912a17.82373557 17.82373557 0 0 1 17.80370642-17.80370642h155.80913774a17.68798255 17.68798255 0 0 1 12.58944586 5.21426056l64.95682337 64.95682301a17.68798255 17.68798255 0 0 1 5.21426055 12.58944622V650.86891088a17.82373557 17.82373557 0 0 1-17.8037064 17.80370642zM401.61701945 369.5703477a3.56074142 3.56074142 0 0 0-3.56074109 3.56074141v277.73782177a3.56074142 3.56074142 0 0 0 3.56074109 3.56074142h220.76596112a3.56074142 3.56074142 0 0 0 3.56074106-3.56074141V440.78517402h-53.41111955a17.82373557 17.82373557 0 0 1-17.80370642-17.80370673V369.5703477z m167.35484153 10.07022163V422.98146729a3.56074142 3.56074142 0 0 0 3.5607411 3.5607414h43.34089828z m7.1214825 217.81722198H447.90665652a7.1214825 7.1214825 0 0 1 0-14.24296533h128.18668696a7.1214825 7.1214825 0 0 1 0 14.24296533z m0-71.21482599H447.90665652a7.1214825 7.1214825 0 0 1 0-14.24296532h128.18668696a7.1214825 7.1214825 0 0 1 0 14.24296532zM504.8785175 440.78517402H447.90665652a7.1214825 7.1214825 0 0 1 0-14.24296533h56.97186098a7.1214825 7.1214825 0 0 1 0 14.24296533z" fill="#5C5C66" p-id="1287"></path></svg>