<?xml version="1.0" standalone="no"?><!DOCTYPE svg PUBLIC "-//W3C//DTD SVG 1.1//EN" "http://www.w3.org/Graphics/SVG/1.1/DTD/svg11.dtd"><svg t="1697128368938" class="icon" viewBox="0 0 1024 1024" version="1.1" xmlns="http://www.w3.org/2000/svg" p-id="1664" width="128" height="128" xmlns:xlink="http://www.w3.org/1999/xlink"><path d="M437.9355155 352.32592018a52.09281974 52.09281974 0 0 0-52.09281975 52.09281944v215.72179934a52.09281974 52.09281974 0 0 0 52.09281975 52.09281976h162.43052514a52.09281974 52.09281974 0 0 0 52.09281975-52.09281976V459.46774716a20.13403475 20.13403475 0 0 0-5.83247831-13.98196852L559.21910495 358.07850149a19.73454983 19.73454983 0 0 0-13.98196852-5.7525813z" fill="#FC4A49" p-id="1665"></path><path d="M646.62638208 445.48577864L559.21910495 358.07850149a19.17527093 19.17527093 0 0 0-10.14691421-5.27319972 1.917527 1.917527 0 0 0-2.23711494 1.91752701v42.26549348A60.88148552 60.88148552 0 0 0 607.8763553 457.86980778h42.26549318a1.99742399 1.99742399 0 0 0 1.99742398-2.23711494 19.89434379 19.89434379 0 0 0-5.51289038-10.1469142z" fill="#F91716" p-id="1666"></path><path d="M609.87377929 448.12237819h38.90982076a17.25774394 17.25774394 0 0 0-2.15721797-2.63659955L559.21910495 358.07850149a17.25774394 17.25774394 0 0 0-2.63659985-2.15721826v38.90982107a53.29127421 53.29127421 0 0 0 53.29127419 53.29127389z" fill="#FFC3C3" p-id="1667"></path><path d="M440.09273345 495.58117408h21.17269523c16.85825902 0 25.32733716 6.15206623 25.32733716 18.37630141a16.938156 16.938156 0 0 1-7.27062369 14.70104138 30.041258 30.041258 0 0 1-17.65722854 4.71392051h-8.38918118v20.53351967H440.09273345z m20.69331333 28.52321563c8.78866578 0 13.103102-3.35567242 13.103102-10.14691422a7.98969624 7.98969624 0 0 0-3.4355694-7.11082974 19.57475587 19.57475587 0 0 0-10.1469142-1.99742397h-7.27062369v19.25516793zM498.4974134 495.58117408h17.65722853a34.51548787 34.51548787 0 0 1 23.3299132 7.11082976 27.64434908 27.64434908 0 0 1 8.54897513 21.97166476 28.20362798 28.20362798 0 0 1-8.46907817 22.13145873 32.51806389 32.51806389 0 0 1-22.6907373 7.43041734h-18.37630139z m16.85825902 49.21652925a17.49743488 17.49743488 0 0 0 19.49485886-20.13403474 17.33764092 17.33764092 0 0 0-19.49485886-19.73454983h-3.99484798v39.94848125zM560.65725035 495.58117408h39.94848125v9.7474296h-27.00517322v15.26031996h22.85053129v9.82732626h-22.85053129v23.96908874h-12.94330803z" fill="#F5F6FA" p-id="1668"></path></svg>