<?xml version="1.0" standalone="no"?><!DOCTYPE svg PUBLIC "-//W3C//DTD SVG 1.1//EN" "http://www.w3.org/Graphics/SVG/1.1/DTD/svg11.dtd"><svg t="1697128286199" class="icon" viewBox="0 0 1024 1024" version="1.1" xmlns="http://www.w3.org/2000/svg" p-id="1430" width="128" height="128" xmlns:xlink="http://www.w3.org/1999/xlink"><path d="M411.21845937 371.16989957C398.89582558 371.16989957 388.77366212 381.29206304 388.77366212 393.61469683v236.77060634C388.77366212 642.70793696 398.89582558 652.83010043 411.21845937 652.83010043h201.56308125c12.32263378 0 22.44479724-10.12216347 22.44479727-22.44479727V460.50899455L552.04855979 371.16989957h-140.83010042z" fill="#E34221" p-id="1431"></path><path d="M635.22633788 460.9490886v4.40094063H578.8942977s-27.72592602-5.72122283-27.28583196-29.92639634c0 0 1.32028221 25.5254557 26.8457379 25.52545571H635.22633788z" fill="#DC3119" p-id="1432"></path><path d="M552.04855979 371.16989957v64.25373332c0 7.04150502 4.84103468 25.5254557 26.8457379 25.52545571H635.22633788L552.04855979 371.16989957z" fill="#FFFFFF" p-id="1433"></path><path d="M454.7877717 586.81599085h-14.96319816v18.48395068c0 1.76037626-1.32028221 3.08065845-3.08065846 3.08065843-1.76037626 0-3.52075251-1.32028221-3.52075251-3.08065843V559.97025297c0-2.64056438 2.20047032-4.84103468 4.84103471-4.84103472H454.7877717c10.56225754 0 16.28348037 7.04150502 16.28348037 15.8433863S464.90993516 586.81599085 454.7877717 586.81599085z m-0.88018813-25.96554976h-14.08301003v20.24432692h14.08301003c6.16131688 0 10.56225754-4.40094064 10.56225754-10.12216347 0-6.16131688-4.40094064-10.12216347-10.56225754-10.12216345zM503.19811873 586.81599085h-14.96319818v18.48395068c0 1.76037626-1.32028221 3.08065845-3.08065844 3.08065843-1.76037626 0-3.08065845-1.32028221-3.08065845-3.08065843V559.97025297c0-2.64056438 1.76037626-4.84103468 4.40094065-4.84103472H503.19811873c10.56225754 0 16.28348037 7.04150502 16.28348036 15.8433863S513.76037626 586.81599085 503.19811873 586.81599085z m-0.88018815-25.96554976h-13.64291596v20.24432692h13.64291596c6.16131688 0 10.56225754-4.40094064 10.56225754-10.12216347 0-6.16131688-4.40094064-10.12216347-10.56225753-10.12216345z m62.05326301 0h-14.52310411v44.44950044c0 1.76037626-1.32028221 3.08065845-3.08065844 3.08065843-1.76037626 0-3.52075251-1.32028221-3.5207525-3.08065844V560.85044109h-14.08301006c-1.76037626 0-3.08065845-1.32028221-3.08065845-3.08065845 0-1.32028221 1.32028221-2.64056438 3.08065845-2.64056439h35.20752511c1.76037626 0 3.08065845 1.32028221 3.08065845 3.08065844 0 1.32028221-1.32028221 2.64056438-3.08065845 2.6405644z" fill="#FFFFFF" p-id="1434"></path></svg>