<?xml version="1.0" encoding="UTF-8"?>
<svg width="32px" height="32px" viewBox="0 0 32 32" version="1.1" xmlns="http://www.w3.org/2000/svg" xmlns:xlink="http://www.w3.org/1999/xlink">
    <title>考核名称</title>
    <g id="页面-1" stroke="none" stroke-width="1" fill="none" fill-rule="evenodd">
        <g id="宣武人才考核系统" transform="translate(-304, -219)">
            <g id="考核名称" transform="translate(304, 219)">
                <rect id="矩形" x="0" y="0" width="32" height="32"></rect>
                <g id="编组" transform="translate(3.0207, 0.9524)" fill="#00549C" fill-rule="nonzero">
                    <path d="M7.75213125,4.08213162 L17.154667,4.08213162 C18.2573654,4.04840907 19.133803,3.14475867 19.133803,2.04154477 C19.133803,0.938330869 18.2573654,0.0346804716 17.154667,0.000957921855 L7.75213125,0.000957921855 C7.00822056,-0.021792239 6.3108724,0.36208904 5.93219416,1.00281011 C5.55351593,1.64353117 5.55351593,2.43955837 5.93219416,3.08027943 C6.3108724,3.7210005 7.00822056,4.10488178 7.75213125,4.08213162 Z" id="路径"></path>
                    <path d="M13.0734933,28.8362914 L13.7031274,25.5221265 L11.3295977,23.2516278 C10.6885157,22.6105458 10.4023184,21.6355669 10.5664048,20.6491402 L10.5816687,20.563281 L10.6064725,20.4774218 C10.9060256,19.4318476 11.726458,18.6839186 12.7548603,18.5198322 L16.0518534,17.8806582 L17.6163987,14.7515675 C18.0838543,13.8166563 19.0187655,13.2347217 20.0586158,13.2347217 C21.0946501,13.2347217 22.0314693,13.8166563 22.4989249,14.7515675 L22.5122808,14.7801873 L24.0100467,17.9378976 L24.8724546,18.0905362 L24.8724546,3.08807294 C24.8724546,2.50008077 24.3957928,2.02341893 23.8078006,2.02341893 L20.2246102,2.02341893 L20.2246102,2.04249877 C20.2246102,3.75586669 18.8336913,5.14487768 17.1184154,5.14487765 L7.75213125,5.14487765 C6.03842579,5.14487797 4.64889767,3.75620391 4.64784437,2.04249877 L4.64784437,2.02341893 L1.06465398,2.02341893 C0.476661819,2.02341893 0,2.50008078 0,3.08807294 L0,28.1379699 C0,28.7256284 0.476995517,29.2026239 1.06465398,29.2026239 L13.0353337,29.2026239 C13.0391496,29.1034089 13.0467816,29.0041938 13.0620454,28.9068867 L13.0734933,28.8362914 Z M5.74684207,8.55253369 L18.8050716,8.55253369 L18.8050716,10.6818417 L5.74684207,10.6818417 L5.74684207,8.55253369 Z M5.74684207,13.4846674 L13.9072815,13.4846674 L13.9072815,15.6120674 L5.74684207,15.6120674 L5.74684207,13.4846674 Z" id="形状"></path>
                    <path d="M23.7410212,30.3970207 L19.9918364,28.4241672 L16.2426516,30.3321493 C15.8476993,30.5286715 15.3878756,30.5286715 15.0597027,30.26537 C14.7113931,29.9775685 14.5367282,29.5300801 14.597971,29.0824211 L15.3878756,24.938284 L12.4285954,22.1106545 C12.0985145,21.7805736 12.0336431,21.2539705 12.0985145,20.8609262 C12.2320732,20.3991945 12.5602461,20.0710216 13.0200698,20.0042422 L17.0974276,19.2162456 L19.0054097,15.4002814 C19.2020437,14.9984832 19.6103288,14.7437368 20.0576618,14.7437368 C20.5049948,14.7437368 20.9132799,14.9984832 21.1099139,15.4002814 L22.9511166,19.281117 L27.0303824,20.0061502 C27.471885,20.0969019 27.8263153,20.4255955 27.9500298,20.8590182 C28.0696803,21.2936575 27.9715695,21.7593284 27.6867282,22.1087465 L24.5957972,24.938284 L25.3208304,29.0824211 C25.3820732,29.5300801 25.2074084,29.9775685 24.8590987,30.26537 C24.727448,30.4638001 24.4641465,30.5286715 24.2676243,30.5286715 C24.0832527,30.5239945 23.9040794,30.4790382 23.7410212,30.3970207 Z" id="路径"></path>
                </g>
            </g>
        </g>
    </g>
</svg>