<?xml version="1.0" standalone="no"?><!DOCTYPE svg PUBLIC "-//W3C//DTD SVG 1.1//EN" "http://www.w3.org/Graphics/SVG/1.1/DTD/svg11.dtd"><svg t="1697128353226" class="icon" viewBox="0 0 1024 1024" version="1.1" xmlns="http://www.w3.org/2000/svg" p-id="1256" width="128" height="128" xmlns:xlink="http://www.w3.org/1999/xlink"><path d="M393.42731456 352.47878955h166.82073012l79.40453109 80.29471643V662.61935718c0 4.91631552-3.98553772 8.90185325-8.90185325 8.90185327H393.42731456c-4.91631552 0-8.90185325-3.98553772-8.90185326-8.90185327V361.38064282c0-4.91631552 3.98553772-8.90185325 8.90185326-8.90185327z" fill="#4A8DFF" p-id="1257"></path><path d="M560.24804468 352.47878955v71.39286316c0 4.91631552 3.98553772 8.90185325 8.90185326 8.90185327h70.50267783L560.24804468 352.47878955z" fill="#E5F0FF" p-id="1258"></path><path d="M576.50389695 609.06580797C584.1755141 617.46773314 598.16993957 612.04009517 598.16993957 600.66245849V468.20288195h-24.92518914v100.32673485L523.69596697 514.26107075c-4.94195285-5.41268286-13.46494324-5.41268286-18.4068961 0L455.74028739 568.52961679V468.20288195h-24.92518913v132.45957652c0 11.37799276 13.99442547 16.80563075 21.66604261 8.4033495L514.49251891 541.1471601 576.50389695 609.06580797z" fill="#FFFFFF" p-id="1259"></path></svg>