<!-- Generated by IcoMoon.io -->
<svg version="1.1" xmlns="http://www.w3.org/2000/svg" width="32" height="32" viewBox="0 0 32 32">
<title>icon-exit-screenfull</title>
<path d="M12.816 16.052h-9.764c-0.552 0-1 0.448-1 1s0.448 1 1 1h7.586l-8.358 8.358c-0.376 0.376-0.376 0.98 0 1.356 0.374 0.374 0.98 0.374 1.354 0l8.418-8.418v7.706c0 0.552 0.448 1 1 1s1-0.448 1-1v-10c0-0.754-0.432-1.002-1.236-1.002zM17.288 14.052h9.766c0.552 0 1-0.448 1-1s-0.448-1-1-1h-7.588l8.358-8.358c0.376-0.376 0.376-0.98 0-1.356-0.374-0.374-0.98-0.374-1.354 0l-8.418 8.42v-7.706c0-0.552-0.448-1-1-1s-1 0.448-1 1v10c0 0.64 0.5 1 1.236 1z"></path>
</svg>
