<!-- Generated by IcoMoon.io -->
<svg version="1.1" xmlns="http://www.w3.org/2000/svg" width="32" height="32" viewBox="0 0 32 32">
<title>fullscreen</title>
<path d="M3.737 3.736h5.805c0.502 0 0.915-0.41 0.915-0.916 0-0.509-0.41-0.916-0.915-0.916h-6.722c-0.251 0-0.48 0.103-0.645 0.268-0.168 0.166-0.27 0.394-0.27 0.647v6.722c0 0.502 0.41 0.915 0.916 0.915 0.509 0 0.916-0.41 0.916-0.915v-5.805zM28.172 3.736h-5.805c-0.503 0-0.915-0.41-0.915-0.916 0-0.509 0.41-0.916 0.915-0.916h6.722c0.251 0 0.48 0.103 0.645 0.268 0.168 0.166 0.27 0.394 0.27 0.647v6.722c0 0.502-0.41 0.915-0.916 0.915-0.509 0-0.916-0.41-0.916-0.915v-5.805zM3.737 28.172h5.805c0.502 0 0.915 0.41 0.915 0.916 0 0.509-0.41 0.916-0.915 0.916h-6.722c-0.251 0-0.48-0.103-0.645-0.268-0.168-0.166-0.27-0.394-0.27-0.647v-6.722c0-0.502 0.41-0.915 0.916-0.915 0.509 0 0.916 0.41 0.916 0.915v5.805zM28.172 28.172h-5.805c-0.503 0-0.915 0.41-0.915 0.916 0 0.509 0.41 0.916 0.915 0.916h6.722c0.251 0 0.48-0.103 0.645-0.268 0.168-0.166 0.27-0.394 0.27-0.647v-6.722c0-0.502-0.41-0.915-0.916-0.915-0.509 0-0.916 0.41-0.916 0.915v5.805z"></path>
</svg>
