<!-- Generated by IcoMoon.io -->
<svg version="1.1" xmlns="http://www.w3.org/2000/svg" width="32" height="32" viewBox="0 0 32 32">
<title>menu-crfSummary</title>
<path d="M1.769 21.001c1.978 1.899 5.858 3.282 12.688 3.338h0.969c0.745-0.006 1.453-0.028 2.13-0.064v6.672c-0.1 0.007-0.319 0.018-0.538 0.027l-0.092 0.003c-1.281 0.081-2.523 0.085-3.728 0.015l-0.241-0.015c-7.534-0.297-11.888-2.299-11.888-4.725v-3.818c0-0.499 0.228-0.977 0.7-1.43zM28.114 12.186c0.455 0.438 0.683 0.899 0.7 1.379l-0.002 2.926h-9.119c-1.179 0-2.134 0.956-2.134 2.134v0 3.21c-0.209 0.011-0.418 0.021-0.632 0.028-1.281 0.085-2.523 0.087-3.728 0.017l-0.241-0.017c-7.534-0.301-11.888-2.301-11.888-4.725v-3.521c0-0.499 0.228-0.977 0.7-1.43 1.978 1.895 5.858 3.28 12.688 3.336h0.969c6.759-0.056 10.835-1.492 12.626-3.278l0.062-0.058zM14.435 0c8.439 0 14.323 2.1 14.323 4.689v3.784c0 2.591-5.884 4.691-14.32 4.691-8.439 0-13.369-2.1-13.369-4.691v-3.784c0-2.587 4.93-4.689 13.367-4.689z"></path>
<path d="M21.062 18.237l0.894 2.166c0.098 0.235 0.326 0.396 0.591 0.397h4.117c0.265-0 0.493-0.162 0.59-0.393l0.002-0.004 0.892-2.166h1.219c0.376 0 0.681 0.309 0.681 0.691v10.406c0 0.943-0.764 1.707-1.707 1.707v0h-8.496c-0.377-0.002-0.681-0.308-0.681-0.685 0-0.002 0-0.003 0-0.005v0-11.424c0-0.382 0.305-0.689 0.681-0.689h1.219zM27.45 26.914h-5.722c-0.265 0-0.668 0.322-0.668 0.721 0 0.397 0.403 0.719 0.668 0.719h5.724c0.267 0 0.649-0.32 0.649-0.719s-0.384-0.721-0.649-0.721zM27.424 23.103h-5.69c-0.265 0-0.677 0.32-0.677 0.719s0.412 0.721 0.677 0.721h5.69c0.265 0 0.666-0.322 0.666-0.721 0-0.397-0.401-0.719-0.666-0.719zM27.108 18.237l-0.576 1.404c-0.050 0.116-0.163 0.196-0.295 0.196-0.001 0-0.003 0-0.004-0h-3.257c-0.001 0-0.002 0-0.004 0-0.132 0-0.246-0.080-0.294-0.194l-0.001-0.002-0.576-1.402h5.007z"></path>
</svg>
