<!-- Generated by IcoMoon.io -->
<svg version="1.1" xmlns="http://www.w3.org/2000/svg" width="32" height="32" viewBox="0 0 32 32">
<title>menu-stati8</title>
<path d="M16.006 32.013c-8.84 0-16.006-7.166-16.006-16.006s7.166-16.006 16.006-16.006c8.84 0 16.006 7.166 16.006 16.006v0c-0.011 8.836-7.171 15.996-16.005 16.006h-0.001zM14.945 20.525c-0.29 0.296-0.469 0.702-0.469 1.149s0.179 0.853 0.47 1.149l-0-0c0.314 0.302 0.735 0.47 1.17 0.468h0.051c0.419 0 0.821-0.164 1.122-0.458 0.302-0.276 0.491-0.673 0.491-1.113 0-0.020-0-0.040-0.001-0.059l0 0.003c0-0.007 0-0.014 0-0.022 0-0.439-0.18-0.836-0.47-1.121l-0-0c-0.293-0.281-0.69-0.455-1.128-0.458h-0.093c-0.443 0.005-0.845 0.18-1.144 0.462l0.001-0.001zM16.503 9.854c0.575 0 1.129 0.215 1.551 0.603 0.79 0.907 0.8 2.255 0.021 3.173l-0.252 0.302c-0.977 0.759-1.82 1.675-2.504 2.707-0.304 0.653-0.449 1.369-0.425 2.089v0.298h2.456v-0.3c0-0.954 0.431-1.855 1.17-2.456 0.987-0.86 1.601-1.426 1.83-1.683 0.546-0.763 0.821-1.683 0.79-2.621 0.003-0.061 0.006-0.133 0.006-0.205 0-1.136-0.495-2.157-1.28-2.859l-0.004-0.003c-0.836-0.709-1.927-1.14-3.119-1.143h-0.499c-1.287-0.002-2.528 0.482-3.474 1.354-0.862 0.881-1.394 2.088-1.394 3.419 0 0.102 0.003 0.203 0.009 0.303l-0.001-0.014h2.428c-0.005-0.066-0.007-0.143-0.007-0.221 0-0.693 0.203-1.339 0.553-1.881l-0.008 0.014c0.427-0.554 1.088-0.882 1.789-0.884h0.213l0.15 0.012z"></path>
</svg>
