<!-- Generated by IcoMoon.io -->
<svg version="1.1" xmlns="http://www.w3.org/2000/svg" width="32" height="32" viewBox="0 0 32 32">
<title>menu-stati6</title>
<path d="M6.735 0l2.164 5.25c0.239 0.581 0.807 0.96 1.436 0.96h9.978c0.63 0 1.195-0.382 1.436-0.963l2.162-5.248h2.956c0.911 0 1.65 0.751 1.65 1.675v15.28c-1.191-0.482-2.869-0.726-5.026-0.726-3.056 0-5.402 0.662-7.041 1.979-0.49 0.388-0.802 0.982-0.803 1.65v11.186h-11.869c-0.913-0.007-1.65-0.749-1.65-1.663 0-0.003 0-0.006 0-0.009v0-27.697c0-0.924 0.739-1.675 1.65-1.675h2.956zM11.889 23.429h-4.002c-0.642 0-1.163 0.521-1.163 1.163s0.521 1.163 1.163 1.163h4.002c0.642 0 1.163-0.521 1.163-1.163s-0.521-1.163-1.163-1.163v0zM12.067 16.947h-4.179c-0.643 0-1.164 0.521-1.164 1.164s0.521 1.164 1.164 1.164h4.179c0.642 0 1.163-0.521 1.163-1.163s-0.521-1.163-1.163-1.163v0zM22.527 10.232h-14.535c-0.7 0-1.27 0.521-1.27 1.163 0 0.645 0.57 1.165 1.27 1.165h14.535c0.702 0 1.27-0.521 1.27-1.165 0-0.64-0.568-1.163-1.27-1.163zM21.392 0l-1.398 3.4c-0.12 0.284-0.395 0.48-0.717 0.48h-7.904c-0.322-0-0.598-0.196-0.715-0.475l-0.002-0.005-1.402-3.4h12.138z"></path>
<path d="M17.458 20.261c0 0.724 1.221 1.389 3.202 1.75 1.981 0.363 4.422 0.363 6.403 0 1.981-0.361 3.202-1.027 3.202-1.75 0-1.116-2.866-2.021-6.403-2.021s-6.403 0.905-6.403 2.021zM23.861 27.676c-2.815 0-5.204-0.574-6.062-1.368-0.036-0.036-0.086-0.058-0.141-0.058-0.111 0-0.201 0.090-0.201 0.201 0 0.001 0 0.002 0 0.002v-0 2.57c0 1.116 2.866 2.023 6.403 2.023 3.535 0 6.403-0.907 6.403-2.023v-2.57c0-0.001 0-0.002 0-0.002 0-0.111-0.090-0.201-0.201-0.201-0.055 0-0.105 0.022-0.141 0.058l0-0c-0.858 0.794-3.248 1.366-6.062 1.366z"></path>
<path d="M23.861 23.294c-2.815 0-5.204-0.572-6.062-1.366-0.036-0.036-0.086-0.058-0.141-0.058-0.111 0-0.201 0.090-0.201 0.201 0 0 0 0 0 0v0 2.572c0 1.114 2.866 2.021 6.403 2.021 3.535 0 6.403-0.907 6.403-2.021v-2.574c0-0.001 0-0.002 0-0.002 0-0.111-0.090-0.201-0.201-0.201-0.055 0-0.105 0.022-0.141 0.058l0-0c-0.858 0.796-3.248 1.368-6.062 1.368z"></path>
</svg>
