<!-- Generated by IcoMoon.io -->
<svg version="1.1" xmlns="http://www.w3.org/2000/svg" width="32" height="32" viewBox="0 0 32 32">
<title>menu-dashboard</title>
<path d="M17.506 1.594l14.014 13.14c0.295 0.28 0.478 0.674 0.478 1.112 0 0.844-0.683 1.529-1.526 1.532h-1.66c-0.405 0.001-0.732 0.329-0.732 0.734 0 0 0 0 0 0v0 11.424c0 0.001 0 0.001 0 0.002 0 0.809-0.655 1.464-1.464 1.464-0.001 0-0.003 0-0.004 0h-5.916c0 0 0 0 0 0-0.809 0-1.464-0.655-1.464-1.464 0-0.001 0-0.001 0-0.002v0-5.834c0-0.809-0.655-1.464-1.464-1.464v0h-3.528c-0.001 0-0.001 0-0.002 0-0.809 0-1.464 0.655-1.464 1.464v0 5.834c0 0.001 0 0.001 0 0.002 0 0.809-0.655 1.464-1.464 1.464h-5.92c-0.001 0-0.003 0-0.004 0-0.809 0-1.464-0.655-1.464-1.464 0-0.001 0-0.001 0-0.002v0-11.424c0 0 0 0 0 0 0-0.404-0.326-0.732-0.73-0.734h-1.662c-0.845-0.002-1.528-0.687-1.528-1.532 0-0.44 0.185-0.836 0.482-1.115l0.001-0.001 14.016-13.136c0.392-0.369 0.921-0.596 1.504-0.596s1.112 0.227 1.505 0.597l-0.001-0.001h-0.002z"></path>
</svg>
