<!-- Generated by IcoMoon.io -->
<svg version="1.1" xmlns="http://www.w3.org/2000/svg" width="32" height="32" viewBox="0 0 32 32">
<title>menu-stati11</title>
<path d="M1.766 20.998c1.978 1.899 5.858 3.282 12.686 3.337h0.687c-0.128 0.555-0.201 1.192-0.201 1.847 0 1.798 0.554 3.467 1.501 4.845l-0.019-0.029 0.501-0.023c-1.28 0.081-2.522 0.085-3.728 0.015l-0.241-0.015c-7.533-0.299-11.886-2.3-11.886-4.727v-3.818c0-0.499 0.228-0.977 0.7-1.43zM28.108 12.185c0.455 0.437 0.683 0.898 0.7 1.379v3.572c0 0.455-0.154 0.894-0.45 1.31-1.421-0.625-3.35-0.79-4.883-0.79-3.152 0-5.905 1.707-7.384 4.247l0.83-0.043c-1.28 0.085-2.522 0.087-3.728 0.017l-0.241-0.017c-7.533-0.301-11.886-2.3-11.886-4.725v-3.521c0-0.499 0.228-0.977 0.7-1.43 1.978 1.895 5.858 3.28 12.686 3.335h0.969c6.758-0.055 10.834-1.492 12.624-3.278l0.062-0.058z"></path>
<path d="M14.431 0c8.438 0 14.321 2.1 14.321 4.688v3.784c0 2.591-5.883 4.69-14.319 4.69-8.438 0-13.367-2.1-13.367-4.69v-3.784c0-2.586 4.929-4.688 13.365-4.688zM22.929 8.096c-0.857 0-1.552 0.695-1.552 1.552s0.695 1.552 1.552 1.552v0c0.857 0 1.552-0.695 1.552-1.552s-0.695-1.552-1.552-1.552v0z"></path>
<path d="M23.183 20.098l-0.002 6.585 6.583 0.002c-0.211 3.258-2.905 5.82-6.198 5.82-3.43 0-6.21-2.78-6.21-6.21 0-3.295 2.566-5.99 5.808-6.197l0.018-0.001z"></path>
<path d="M25.216 19.389c0.001 0 0.001 0 0.002 0 2.999 0 5.431 2.431 5.431 5.431 0 0.001 0 0.002 0 0.002v-0h-5.433v-5.433z"></path>
</svg>
