<!-- Generated by IcoMoon.io -->
<svg version="1.1" xmlns="http://www.w3.org/2000/svg" width="32" height="32" viewBox="0 0 32 32">
<title>menu-subject</title>
<path d="M29.582 7.601h-8.736c-0.002 0-0.005 0-0.008 0-0.585 0-1.098-0.305-1.39-0.765l-0.004-0.007-1.28-2.052c-0.304-0.463-0.818-0.766-1.403-0.772h-14.383c-1.28 0-2.378 1.098-2.378 2.418v19.2c0 1.28 1.056 2.376 2.378 2.376h27.202c1.32 0 2.378-1.096 2.418-2.376v-15.604c0-1.34-1.098-2.418-2.418-2.418zM2.986 12.275c0-0.59 0.488-1.078 1.078-1.078h4.996c0.588 0 1.076 0.488 1.076 1.078-0.005 0.592-0.484 1.072-1.076 1.076h-5c-0.592-0.005-1.071-0.484-1.076-1.076v-0zM2.986 17.515c0-0.588 0.488-1.076 1.078-1.076h8.066c0.588 0 1.076 0.488 1.076 1.078-0.005 0.592-0.484 1.072-1.076 1.076h-8.066c-0.59-0.011-1.066-0.486-1.078-1.075l-0-0.001zM14.566 22.737c-0.003 0.593-0.483 1.073-1.076 1.078h-9.426c-0.594-0.003-1.075-0.484-1.078-1.078v-0c0-0.588 0.488-1.076 1.078-1.076h9.426c0.59 0 1.078 0.488 1.078 1.076zM23.162 10.913c1.793 0.006 3.244 1.457 3.25 3.249v0.001c-0.005 1.793-1.457 3.246-3.249 3.252h-0.001c-1.793-0.006-3.245-1.459-3.25-3.252v-0c0.006-1.793 1.457-3.244 3.249-3.25h0.001zM28.77 21.621v1.138c0 0.772-0.814 1.38-1.728 1.38h-7.74c-0.976 0-1.728-0.608-1.728-1.38v-1.22c0-1.422 2.5-2.6 5.608-2.6s5.608 1.178 5.608 2.6l-0.020 0.080z"></path>
</svg>
