<!-- Generated by IcoMoon.io -->
<svg version="1.1" xmlns="http://www.w3.org/2000/svg" width="32" height="32" viewBox="0 0 32 32">
<title>menu-export</title>
<path d="M13.794 12.578c8.715 0 14.78-2.163 14.78-4.836v-2.906c0-2.66-6.001-4.836-14.78-4.836-8.777 0-13.792 2.189-13.792 4.836v2.908c0 2.673 5.079 4.836 13.792 4.836zM14.831 14.854h-0.576c-7.317 0-11.452-1.459-13.536-3.441-0.426 0.36-0.699 0.889-0.717 1.482l-0 0.003v4.004c0 2.432 4.011 4.491 11.778 4.811 0-2.522 1.402-4.951 3.051-6.859zM11.878 25.116c-6.257-0.218-9.291-1.572-11.136-3.403-0.432 0.359-0.713 0.886-0.74 1.48l-0 0.005v4.004c0 2.622 5.335 4.798 14.458 4.798h2.662c-2.961-1.316-4.704-4.075-5.244-6.884zM13.717 22.852c0.004 5.044 4.093 9.133 9.137 9.135h0c0.001 0 0.001 0 0.002 0 5.044 0 9.133-4.089 9.133-9.133 0-0.001 0-0.002 0-0.002v0c-0.011-5.041-4.094-9.125-9.134-9.137h-0.001c-5.045 0.002-9.135 4.092-9.137 9.137v0zM19.289 24.213c-0.19-0.188-0.307-0.448-0.307-0.736s0.118-0.548 0.307-0.736l0-0c0.188-0.19 0.448-0.307 0.736-0.307s0.548 0.118 0.736 0.307l0 0 1.062 1.065v-4.457c0-0.573 0.464-1.037 1.037-1.037s1.037 0.464 1.037 1.037v0 4.454l1.060-1.062c0.188-0.19 0.448-0.307 0.736-0.307s0.548 0.118 0.736 0.307l0 0c0.19 0.188 0.307 0.448 0.307 0.736s-0.118 0.548-0.307 0.736l-2.816 2.814c-0.191 0.205-0.463 0.333-0.764 0.333-0.001 0-0.003 0-0.004 0h0c-0.008 0-0.018 0-0.028 0-0.279 0-0.529-0.124-0.699-0.319l-0.001-0.001-2.831-2.827z"></path>
</svg>
