<!-- Generated by IcoMoon.io -->
<svg version="1.1" xmlns="http://www.w3.org/2000/svg" width="32" height="32" viewBox="0 0 32 32">
<title>menu-site</title>
<path d="M10.247 2.133c0.687 0 1.353 0.222 1.899 0.629l0.147 0.115 3.515 2.62 15.24 0.002c0.858 0 1.551 0.696 1.551 1.551v10.168l-5.087-2.936c-0.306-0.179-0.673-0.285-1.065-0.285-0.293 0-0.573 0.059-0.827 0.166l0.014-0.005-0.256 0.124-6.182 3.57c-0.642 0.376-1.067 1.062-1.067 1.848v0 7.138c0 0.397 0.109 0.769 0.298 1.087l-0.005-0.010h-16.871c0 0 0 0 0 0-0.857 0-1.551-0.695-1.551-1.551 0-0.001 0-0.002 0-0.002v0-21.051c0-1.701 1.34-3.092 3.024-3.177l0.156-0.002h7.063zM7.294 21.667c-0.017-0.001-0.037-0.001-0.056-0.001-0.823 0-1.489 0.667-1.489 1.489s0.667 1.489 1.489 1.489c0.020 0 0.040-0 0.059-0.001l-0.003 0c0.798-0.031 1.433-0.686 1.433-1.488s-0.635-1.457-1.43-1.488l-0.003-0zM14.491 21.991h-1.741l-0.113 0.006c-0.584 0.068-1.033 0.561-1.033 1.158s0.449 1.089 1.028 1.157l0.005 0.001 0.113 0.006h1.741l0.111-0.006c0.584-0.068 1.033-0.561 1.033-1.158s-0.449-1.089-1.028-1.157l-0.005-0.001-0.111-0.006zM7.294 15.568c-0.017-0.001-0.037-0.001-0.056-0.001-0.823 0-1.489 0.667-1.489 1.489s0.667 1.489 1.489 1.489c0.020 0 0.040-0 0.059-0.001l-0.003 0c0.798-0.031 1.433-0.686 1.433-1.488s-0.635-1.457-1.43-1.488l-0.003-0zM16.188 15.892h-3.438l-0.113 0.004c-0.589 0.064-1.043 0.558-1.043 1.159s0.454 1.095 1.038 1.158l0.005 0 0.113 0.006h3.438l0.113-0.006c0.589-0.064 1.043-0.558 1.043-1.159s-0.454-1.095-1.038-1.158l-0.005-0-0.113-0.004zM7.294 9.166c-0.017-0.001-0.037-0.001-0.056-0.001-0.823 0-1.489 0.667-1.489 1.489s0.667 1.489 1.489 1.489c0.020 0 0.040-0 0.059-0.001l-0.003 0c0.798-0.031 1.433-0.686 1.433-1.488s-0.635-1.457-1.43-1.488l-0.003-0zM25.865 9.491l-13.228 0.004c-0.589 0.064-1.043 0.558-1.043 1.159s0.454 1.095 1.038 1.158l0.005 0 0.113 0.006 13.226-0.006c0.589-0.064 1.043-0.558 1.043-1.159s-0.454-1.095-1.038-1.158l-0.005-0-0.111-0.004z"></path>
<path d="M26.78 16.144l0.109 0.043 0.105 0.051 5.377 3.105c0.296 0.174 0.501 0.476 0.539 0.827l0 0.005 0.006 0.117v6.208c0 0.352-0.171 0.679-0.448 0.883l-0.1 0.064-5.375 3.105c-0.157 0.092-0.345 0.146-0.546 0.146-0.161 0-0.315-0.035-0.453-0.098l0.007 0.003-0.102-0.051-5.377-3.105c-0.297-0.173-0.503-0.475-0.542-0.827l-0-0.005-0.004-0.115v-6.21c0-0.352 0.169-0.679 0.448-0.883l0.098-0.064 5.377-3.105c0.157-0.092 0.346-0.147 0.547-0.147 0.12 0 0.236 0.019 0.344 0.055l-0.008-0.002zM26.445 21.537c-0.027-0.001-0.059-0.002-0.091-0.002-1.072 0-1.942 0.869-1.942 1.942s0.869 1.942 1.942 1.942c0.032 0 0.064-0.001 0.095-0.002l-0.004 0c1.033-0.050 1.851-0.899 1.851-1.94s-0.818-1.89-1.846-1.94l-0.004-0z"></path>
</svg>
