<!-- Generated by IcoMoon.io -->
<svg version="1.1" xmlns="http://www.w3.org/2000/svg" width="32" height="32" viewBox="0 0 32 32">
<title>menu-crflist</title>
<path d="M5.672 0l2.164 5.25c0.239 0.58 0.807 0.96 1.436 0.96h9.977c0.63 0 1.195-0.382 1.436-0.962l2.162-5.248h2.956c0.911 0 1.65 0.751 1.65 1.675v15.743c-1.5-0.753-3.018-0.753-4.656-0.753 0 0-0 0-0 0-4.714 0-8.536 3.822-8.536 8.536 0 2.262 0.88 4.318 2.315 5.845l-0.004-0.004h-13.854c-0.913-0.007-1.65-0.749-1.65-1.662 0-0.005 0-0.011 0-0.016v0.001-27.689c0-0.924 0.738-1.675 1.65-1.675h2.956zM10.239 23.425h-3.414c-0.642 0-1.163 0.521-1.163 1.163s0.521 1.163 1.163 1.163h3.414c0.642 0 1.163-0.521 1.163-1.163s-0.521-1.163-1.163-1.163v0zM12.279 16.944h-5.455c-0.643 0-1.164 0.521-1.164 1.164s0.521 1.164 1.164 1.164h5.455c0.642 0 1.163-0.521 1.163-1.163s-0.521-1.163-1.163-1.163v0zM21.462 10.231h-14.533c-0.7 0-1.27 0.521-1.27 1.163 0 0.644 0.57 1.165 1.27 1.165h14.533c0.702 0 1.27-0.521 1.27-1.165 0-0.64-0.568-1.163-1.27-1.163zM20.327 0l-1.398 3.4c-0.12 0.284-0.395 0.48-0.717 0.48h-7.902c-0.322-0-0.597-0.196-0.715-0.475l-0.002-0.005-1.402-3.4h12.136z"></path>
<path d="M22.504 18.982l-0.002 6.584 6.584 0.004c-0.211 3.258-2.905 5.82-6.198 5.82-3.43 0-6.21-2.78-6.21-6.21 0-3.295 2.566-5.99 5.808-6.197l0.018-0.001z"></path>
<path d="M24.537 18.274c0.001 0 0.001 0 0.002 0 3 0 5.431 2.432 5.431 5.431 0 0.001 0 0.002 0 0.002v-0h-5.433v-5.433z"></path>
</svg>
