<!-- Generated by IcoMoon.io -->
<svg version="1.1" xmlns="http://www.w3.org/2000/svg" width="29" height="32" viewBox="0 0 29 32">
<title>menu-remind</title>
<path d="M14.661 32.013c2.139-0.001 3.987-1.247 4.86-3.052l0.014-0.032h-9.75c0.887 1.838 2.736 3.084 4.876 3.084h0zM27.772 24.297h-0.012c-1.335-0.379-2.297-1.586-2.3-3.018v-0c0-0.025 0.006-0.045 0.006-0.066l-0.006-8.485h-0.021c-0.185-5.344-3.825-9.727-8.957-10.622v-0.176c0-1.065-0.864-1.929-1.929-1.929s-1.929 0.864-1.929 1.929v0 0.176c-5.13 0.897-9.337 5.278-9.522 10.622h-0.021v8.485c-0.006 0.057 0.008 0.113 0.008 0.174 0 1.322-0.792 2.456-1.927 2.961-0.663 0.183-1.142 0.781-1.142 1.49 0 0.844 0.677 1.529 1.518 1.543l0.001 0h26.226c0.829-0.029 1.49-0.709 1.49-1.542 0-0.831-0.658-1.509-1.481-1.542l-0.003-0z"></path>
</svg>
