<svg xmlns="http://www.w3.org/2000/svg" width="15.987" height="16"><g fill="none" fill-rule="evenodd"><path d="M0 0h16v16H0z"/><g fill="#FFF" fill-rule="nonzero"><path d="m8.422 15.827-.48-.454.186-.633a.496.496 0 0 0-.064-.37.515.515 0 0 0-.294-.244l-.646-.16-.153-.645a4.74 4.74 0 0 1-.103-.576l-.019-.185v-.039a4.247 4.247 0 0 1-.02-.403c0-.134.007-.268.02-.435l.02-.191a6.84 6.84 0 0 1 .102-.576l.153-.646.646-.16a.47.47 0 0 0 .294-.243.507.507 0 0 0 .064-.377l-.185-.633.48-.454c.342-.324.727-.6 1.144-.819h.006l.064-.032s.007 0 .007-.006l.038-.02c.121-.063.25-.114.41-.178.133-.051.274-.103.415-.141l.326-.096c.045-.134.09-.275.134-.416a.579.579 0 0 0 .218-.108c.064-.051.14-.122.21-.224a1.4 1.4 0 0 0 .199-.416c.051-.172.07-.339.051-.48a1.17 1.17 0 0 0-.09-.37 1.281 1.281 0 0 0-.191-.34c.006-.402-.013-.799-.064-1.208a7.57 7.57 0 0 0-.23-1.074 3.508 3.508 0 0 0-.486-1.036 2.946 2.946 0 0 0-.672-.704 3.723 3.723 0 0 0-.754-.44 3.78 3.78 0 0 0-.774-.218A3.533 3.533 0 0 0 7.623 0a4.4 4.4 0 0 0-.755.064 3.78 3.78 0 0 0-.774.217 3.676 3.676 0 0 0-.754.442c-.25.185-.473.428-.672.71a3.434 3.434 0 0 0-.486 1.035 6.775 6.775 0 0 0-.23 1.075 7.71 7.71 0 0 0-.07 1.208 1.222 1.222 0 0 0-.192.346c-.038.096-.07.224-.083.37-.02.141 0 .308.05.48.059.18.122.32.2.416.07.102.146.173.21.224.07.057.147.09.218.108.05.167.108.333.16.493.05.128.108.268.172.403.064.14.14.243.224.313.18.154.339.294.48.429.147.14.223.332.249.588.006.16.013.307.013.441a1.014 1.014 0 0 1-.326.78 2.515 2.515 0 0 1-.518.403c-.269.18-.589.314-.96.416-.364.096-1.963.64-2.308.76-.339.11-.64.27-.895.474-.256.198-.416.492-.48.889-.102.678-.122.787-.064 1.221.051.429.14.691.256.78.102.07.37.16.831.263.454.102 3.23.626 6.504.64.326 0 .646-.007.965-.02-.057-.045-.115-.09-.166-.14Z"/><path d="M15.987 12.118c0-.108-.006-.21-.019-.32l-.02-.178a3.55 3.55 0 0 0-.082-.455 1.56 1.56 0 0 1-.972-.754 1.58 1.58 0 0 1-.166-1.222 3.063 3.063 0 0 0-.352-.294 3.85 3.85 0 0 0-.934-.53c-.006-.007-.02-.007-.025-.013-.11-.045-.211-.077-.327-.115a1.59 1.59 0 0 1-1.144.466 1.6 1.6 0 0 1-1.145-.466c-.11.032-.22.07-.326.115-.007.006-.02.006-.026.013-.335.13-.65.31-.933.53-.122.09-.237.192-.352.294.109.378.064.819-.166 1.222a1.6 1.6 0 0 1-.972.754c-.039.148-.064.301-.083.455l-.02.179a5.14 5.14 0 0 0-.012.32c0 .108.006.21.012.319l.02.18c.019.153.044.306.083.453.383.096.741.352.972.755.23.396.275.844.166 1.221a4.622 4.622 0 0 0 .96.678h.006c.102.051.21.102.32.147.006.007.019.007.025.013.109.045.21.077.326.115a1.59 1.59 0 0 1 1.145-.467c.46 0 .87.186 1.144.467.111-.033.22-.071.327-.115.006-.007.019-.007.025-.013.109-.045.218-.096.32-.147h.006c.218-.109.416-.237.608-.384.121-.09.236-.192.351-.294a1.584 1.584 0 0 1 .167-1.221 1.6 1.6 0 0 1 .972-.755c.038-.147.064-.3.083-.454l.02-.179a2.68 2.68 0 0 0 .018-.32Zm-4.035 1.484a1.485 1.485 0 0 1 0-2.967 1.485 1.485 0 0 1 0 2.967Z"/></g></g></svg>