<!-- Generated by IcoMoon.io -->
<svg version="1.1" xmlns="http://www.w3.org/2000/svg" width="32" height="32" viewBox="0 0 32 32">
<title>menu-stati10</title>
<path d="M29.172 12.184c0.455 0.438 0.683 0.899 0.7 1.379v3.575c0 2.427-4.354 4.428-11.888 4.725-1.281 0.085-2.523 0.087-3.728 0.017l-0.241-0.017c-7.534-0.301-11.888-2.301-11.888-4.725v-3.521c0-0.499 0.228-0.977 0.7-1.43 1.978 1.895 5.858 3.28 12.688 3.336h0.969c6.759-0.056 10.835-1.492 12.626-3.278l0.062-0.058zM23.993 16.634c-0.857 0-1.552 0.695-1.552 1.552s0.695 1.552 1.552 1.552v0c0.857 0 1.552-0.695 1.552-1.552s-0.695-1.552-1.552-1.552v0z"></path>
<path d="M29.172 21.001c0.455 0.44 0.683 0.901 0.7 1.381v3.869c0 2.427-4.354 4.428-11.888 4.727-1.281 0.081-2.523 0.085-3.728 0.015l-0.241-0.015c-7.534-0.299-11.888-2.301-11.888-4.727v-3.818c0-0.499 0.228-0.977 0.7-1.43 1.978 1.895 5.858 3.28 12.688 3.336h0.969c6.759-0.055 10.63-1.413 12.626-3.278l0.062-0.058zM23.993 25.499c-0.857 0-1.552 0.695-1.552 1.552s0.695 1.552 1.552 1.552v0c0.857 0 1.552-0.695 1.552-1.552s-0.695-1.552-1.552-1.552v0zM15.494 0c8.439 0 14.323 2.1 14.323 4.689v3.784c0 2.591-5.884 4.691-14.32 4.691-8.439 0-13.369-2.1-13.369-4.691v-3.784c0-2.587 4.93-4.689 13.367-4.689zM23.993 8.097c-0.858 0-1.553 0.695-1.553 1.553s0.695 1.553 1.553 1.553v0c0.858 0 1.553-0.695 1.553-1.553s-0.695-1.553-1.553-1.553v0z"></path>
</svg>
