<!-- Generated by IcoMoon.io -->
<svg version="1.1" xmlns="http://www.w3.org/2000/svg" width="31" height="32" viewBox="0 0 31 32">
<title>menu-stati9</title>
<path d="M19.142 14.57c-0.117 0.317-0.237 0.58-0.372 0.834l0.017-0.036c-0.144 0.271-0.296 0.478-0.462 0.62-0.189 0.138-0.339 0.317-0.44 0.525l-0.004 0.008c-0.071 0.157-0.143 0.351-0.202 0.55l-0.009 0.035c-0.062 0.199-0.123 0.406-0.195 0.62-0.087 0.244-0.208 0.455-0.358 0.64l0.003-0.004c-0.544 0.71-0.952 1.395-1.223 2.058-0.238 0.548-0.435 1.19-0.56 1.858l-0.009 0.057c-0.105 0.616-0.135 1.223-0.088 1.826 0.047 0.601 0.144 1.186 0.283 1.755 0.096 0.425 0.238 0.868 0.427 1.328 0.189 0.462 0.466 0.934 0.833 1.418 0.365 0.486 0.833 0.958 1.4 1.418 0.568 0.462 1.276 0.905 2.128 1.33-0.568 0.119-1.231 0.226-1.986 0.32-1.614 0.181-3.485 0.284-5.38 0.284-0.065 0-0.13-0-0.195-0l0.010 0c-0.616 0-1.33-0.025-2.144-0.072-1.164-0.066-2.035-0.129-2.904-0.203l0.386 0.026c-0.862-0.070-1.713-0.154-2.553-0.246-1.070-0.118-1.858-0.225-2.641-0.347l0.336 0.043c-0.698-0.107-1.287-0.218-1.771-0.337-0.484-0.117-0.786-0.226-0.903-0.318-0.215-0.189-0.38-0.716-0.499-1.58-0.117-0.862-0.082-1.991 0.107-3.384 0.119-0.78 0.431-1.375 0.94-1.789 0.507-0.415 1.104-0.739 1.789-0.975 0.685-0.238 1.402-0.456 2.144-0.657 0.745-0.201 1.402-0.478 1.97-0.833 0.447-0.283 0.79-0.55 1.026-0.798 0.211-0.211 0.379-0.465 0.491-0.746l0.005-0.015c0.094-0.261 0.144-0.534 0.144-0.815 0-0.285-0.014-0.591-0.037-0.923-0.047-0.497-0.22-0.887-0.513-1.17-0.29-0.278-0.596-0.555-0.91-0.824l-0.030-0.025c-0.21-0.17-0.378-0.384-0.492-0.627l-0.005-0.011c-0.114-0.217-0.234-0.486-0.339-0.763l-0.018-0.053c-0.113-0.29-0.211-0.634-0.278-0.99l-0.006-0.036c-0.176-0.051-0.329-0.124-0.468-0.217l0.006 0.004c-0.146-0.126-0.275-0.266-0.385-0.42l-0.005-0.007c-0.166-0.244-0.3-0.526-0.385-0.829l-0.005-0.020c-0.085-0.23-0.134-0.496-0.134-0.773 0-0.078 0.004-0.155 0.011-0.23l-0.001 0.010c0.035-0.308 0.101-0.566 0.195-0.78 0.094-0.261 0.226-0.484 0.39-0.673 0-0.804 0.047-1.607 0.142-2.411 0.094-0.685 0.242-1.418 0.443-2.198s0.525-1.478 0.975-2.093c0.425-0.589 0.88-1.073 1.365-1.453 0.484-0.378 0.985-0.673 1.506-0.886 0.521-0.211 1.040-0.359 1.56-0.443 0.521-0.082 1.018-0.123 1.49-0.123 0.616 0 1.205 0.072 1.773 0.213 0.566 0.142 1.092 0.328 1.576 0.566 0.486 0.236 0.917 0.503 1.295 0.798s0.685 0.595 0.923 0.903c0.542 0.685 0.938 1.443 1.186 2.27 0.246 0.827 0.431 1.607 0.55 2.339 0.117 0.852 0.164 1.703 0.142 2.553 0.142 0.119 0.261 0.261 0.355 0.425 0.101 0.163 0.175 0.354 0.21 0.559l0.001 0.009c0.047 0.236 0.047 0.531 0 0.886-0.047 0.447-0.142 0.802-0.283 1.063s-0.296 0.46-0.462 0.603c-0.169 0.151-0.369 0.272-0.589 0.349l-0.012 0.004c-0.118 0.486-0.215 0.83-0.321 1.17l0.038-0.142z"></path>
<path d="M17.005 23.79c0 3.967 3.216 7.182 7.182 7.182s7.182-3.216 7.182-7.182v0c0-3.967-3.216-7.182-7.182-7.182s-7.182 3.216-7.182 7.182v0zM25.846 26.532l-2.284-1.929c-0.185-0.185-0.166-0.441-0.166-0.831s-0.088-3.92-0.088-3.92c-0-0.002-0-0.004-0-0.006 0-0.384 0.31-0.695 0.693-0.698h0c0.384 0.002 0.694 0.314 0.694 0.698 0 0.002 0 0.004-0 0.006v-0 3.92c0 0.021 2.14 1.773 2.14 1.773 0.124 0.127 0.2 0.3 0.2 0.491 0 0.193-0.078 0.368-0.204 0.496l0-0c-0.126 0.127-0.3 0.205-0.492 0.205s-0.367-0.078-0.492-0.205l-0-0z"></path>
</svg>
