<!-- Generated by IcoMoon.io -->
<svg version="1.1" xmlns="http://www.w3.org/2000/svg" width="32" height="32" viewBox="0 0 32 32">
<title>menu-stati5</title>
<path d="M6.739 0l2.163 5.248c0.239 0.58 0.806 0.96 1.436 0.96h9.973c0.629 0 1.195-0.382 1.436-0.962l2.161-5.246h2.955c0.911 0 1.649 0.751 1.649 1.675v15.889c-1.315-0.87-2.93-1.388-4.665-1.388-4.713 0-8.533 3.821-8.533 8.533 0 2.505 1.079 4.757 2.797 6.318l0.007 0.006-14.336-0.002c-0.911-0.008-1.647-0.749-1.647-1.662 0-0.005 0-0.011 0-0.016v0.001-27.68c0-0.924 0.738-1.675 1.649-1.675h2.955zM12.092 23.418h-4.203c-0.642 0-1.163 0.521-1.163 1.163s0.521 1.163 1.163 1.163h4.203c0.642 0 1.163-0.521 1.163-1.163s-0.521-1.163-1.163-1.163v0zM12.088 16.939h-4.196c-0.643 0-1.164 0.521-1.164 1.164s0.521 1.164 1.164 1.164h4.196c0.642 0 1.163-0.521 1.163-1.163s-0.521-1.163-1.163-1.163v0zM22.524 10.227h-14.528c-0.7 0-1.269 0.521-1.269 1.163 0 0.644 0.57 1.165 1.269 1.165h14.528c0.702 0 1.269-0.521 1.269-1.165 0-0.64-0.567-1.163-1.269-1.163zM21.389 0l-1.397 3.398c-0.12 0.284-0.395 0.48-0.717 0.48h-7.9c-0.322-0-0.597-0.196-0.715-0.475l-0.002-0.005-1.402-3.398h12.132z"></path>
<path d="M17.457 24.632c0 3.535 2.865 6.4 6.4 6.4s6.4-2.865 6.4-6.4v0c0-3.535-2.865-6.4-6.4-6.4s-6.4 2.865-6.4 6.4v0zM25.336 27.074l-2.035-1.717c-0.164-0.164-0.149-0.395-0.149-0.742s-0.079-3.492-0.079-3.492c0-0.346 0.277-0.627 0.619-0.627s0.619 0.282 0.619 0.627v3.492c0 0.019 1.907 1.579 1.907 1.579 0.11 0.113 0.179 0.268 0.179 0.438 0 0.173-0.070 0.329-0.183 0.443l0-0c-0.112 0.113-0.267 0.182-0.438 0.182s-0.326-0.070-0.438-0.182l-0-0z"></path>
</svg>
