<?xml version="1.0" encoding="UTF-8"?>
<svg width="12.7272727px" height="15.6363636px" viewBox="0 0 12.7272727 15.6363636" version="1.1" xmlns="http://www.w3.org/2000/svg" xmlns:xlink="http://www.w3.org/1999/xlink">
    <title>冻结</title>
    <g id="页面-1" stroke="none" stroke-width="1" fill="none" fill-rule="evenodd">
        <g id="冻结" transform="translate(-1.6364, -0.1818)">
            <rect id="矩形" x="0" y="0" width="16" height="16"></rect>
            <path d="M9.88057195,0.181818182 C10.2181202,0.181818182 10.5418434,0.315908706 10.780526,0.554591369 L13.9908632,3.76492851 C14.2295458,4.00361117 14.3636364,4.32733433 14.3636364,4.66488259 L14.3636364,14.5454545 C14.3636364,15.2483624 13.793817,15.8181818 13.0909091,15.8181818 L2.90909091,15.8181818 C2.20618305,15.8181818 1.63636364,15.2483624 1.63636364,14.5454545 L1.63636364,1.45454545 C1.63636364,0.751637591 2.20618305,0.181818182 2.90909091,0.181818182 Z M9.63536364,1.27181818 L2.90909091,1.27272727 C2.8086755,1.27272727 2.72727273,1.35413005 2.72727273,1.45454545 L2.72727273,14.5454545 C2.72727273,14.64587 2.8086755,14.7272727 2.90909091,14.7272727 L13.0909091,14.7272727 C13.1913245,14.7272727 13.2727273,14.64587 13.2727273,14.5454545 L13.2723636,4.90881818 L10.9090909,4.90909091 C10.2501148,4.90909091 9.70811094,4.40827307 9.64293458,3.76649261 L9.63636364,3.63636364 L9.63536364,1.27181818 Z M8.00804478,4.89797589 C8.28979004,4.89797589 8.51818971,5.12637555 8.51818971,5.40812081 L8.51791145,6.28570922 L9.1150637,5.69024199 C9.29094196,5.52635682 9.55274273,5.5101024 9.74559152,5.6387462 L9.82356792,5.7027426 C10.0178394,5.89701404 10.0233659,6.21024309 9.82953413,6.41801596 L8.51791145,7.72890922 L8.51791145,8.38704256 L9.17604478,8.38704256 L10.4947739,7.06995213 C10.6706521,6.90606696 10.9324529,6.88981255 11.1253017,7.01845635 L11.2032781,7.08245275 C11.3975495,7.2767242 11.403076,7.58995325 11.2092443,7.79772611 L10.6192448,8.38704256 L11.4978999,8.38783096 C11.7483401,8.38783096 11.9566307,8.5682949 11.9998257,8.80627669 L12.0080448,8.89797589 C12.0080448,9.17972115 11.7796451,9.40812081 11.4978999,9.40812081 L10.6192448,9.40784256 L11.2157787,10.0049948 C11.3796639,10.1808731 11.3959183,10.4426738 11.2672745,10.6355226 L11.2032781,10.713499 C11.0090066,10.9077705 10.6957776,10.913297 10.4880047,10.7194652 L9.17604478,9.40784256 L8.51791145,9.40784256 L8.51791145,10.0659759 L9.83606855,11.384705 C9.99995371,11.5605832 10.0162081,11.822384 9.88756432,12.0152328 L9.82356792,12.0932092 C9.62929647,12.2874806 9.31606742,12.2930071 9.10829457,12.0991754 L8.51791145,11.5091759 L8.51818971,12.387831 C8.51818971,12.6382712 8.33772578,12.8465618 8.09974398,12.8897568 L8.00804478,12.8979759 C7.72629952,12.8979759 7.49789986,12.6695762 7.49789986,12.387831 L7.49711145,11.5091759 L6.91432942,12.0924062 C6.8083493,12.206142 6.65767751,12.2641126 6.50579678,12.2535637 L6.41487113,12.2389099 C6.23412113,12.1927495 6.09298132,12.0516097 6.04682092,11.8708597 C6.00066052,11.6901097 6.05684171,11.4985776 6.18655544,11.3779358 L7.49711145,10.0659759 L7.49711145,9.40784256 L6.83897812,9.40784256 L5.53461926,10.7126961 C5.42863914,10.8264318 5.27796735,10.8844025 5.12608662,10.8738535 L5.03516097,10.8591998 C4.85441097,10.8130394 4.71327117,10.6718995 4.66711077,10.4911495 C4.62095037,10.3103995 4.67713157,10.1188674 4.80684529,9.99822567 L5.39577812,9.40784256 L4.51818971,9.40812081 C4.26774947,9.40812081 4.05945885,9.22765688 4.0162639,8.98967509 L4.00804478,8.89797589 C4.00804478,8.61623063 4.23644445,8.38783096 4.51818971,8.38783096 L5.39577812,8.38704256 L4.80031088,7.79095697 C4.63642571,7.61507871 4.6201713,7.35327794 4.74881509,7.16042916 L4.81281149,7.08245275 C5.00708294,6.88818131 5.32031198,6.88265479 5.52808485,7.07648654 L6.83897812,8.38704256 L7.49711145,8.38704256 L7.49711145,7.72890922 L6.18002102,6.41124682 C6.01613585,6.23536856 5.99988144,5.97356779 6.12852524,5.780719 L6.19252165,5.7027426 C6.38679309,5.50847116 6.70002214,5.50294465 6.907795,5.6967764 L7.49711145,6.28570922 L7.49789986,5.40812081 C7.49789986,5.15768058 7.67836379,4.94938996 7.91634559,4.90619501 L8.00804478,4.89797589 Z M12.5013636,3.81781818 L10.7263636,2.04381818 L10.7272727,3.63636364 C10.7272727,3.71669596 10.7793705,3.7848602 10.8516223,3.80891261 L10.9090909,3.81818182 L12.5013636,3.81781818 Z" id="形状结合" fill="#007AFF" fill-rule="nonzero"></path>
        </g>
    </g>
</svg>