<?xml version="1.0" encoding="UTF-8"?>
<svg width="12.7272727px" height="15.6363636px" viewBox="0 0 12.7272727 15.6363636" version="1.1" xmlns="http://www.w3.org/2000/svg" xmlns:xlink="http://www.w3.org/1999/xlink">
    <title>空白</title>
    <g id="页面-1" stroke="none" stroke-width="1" fill="none" fill-rule="evenodd">
        <g id="空白" transform="translate(-1.6364, -0.1818)">
            <rect id="矩形" x="0" y="0" width="16" height="16"></rect>
            <path d="M9.88057195,0.181818182 C10.2181202,0.181818182 10.5418434,0.315908706 10.780526,0.554591369 L13.9908632,3.76492851 C14.2295458,4.00361117 14.3636364,4.32733433 14.3636364,4.66488259 L14.3636364,14.5454545 C14.3636364,15.2483624 13.793817,15.8181818 13.0909091,15.8181818 L2.90909091,15.8181818 C2.20618305,15.8181818 1.63636364,15.2483624 1.63636364,14.5454545 L1.63636364,1.45454545 C1.63636364,0.751637591 2.20618305,0.181818182 2.90909091,0.181818182 Z M9.63536364,1.27181818 L2.90909091,1.27272727 C2.8086755,1.27272727 2.72727273,1.35413005 2.72727273,1.45454545 L2.72727273,14.5454545 C2.72727273,14.64587 2.8086755,14.7272727 2.90909091,14.7272727 L13.0909091,14.7272727 C13.1913245,14.7272727 13.2727273,14.64587 13.2727273,14.5454545 L13.2723636,4.90881818 L10.9090909,4.90909091 C10.2501148,4.90909091 9.70811094,4.40827307 9.64293458,3.76649261 L9.63636364,3.63636364 L9.63536364,1.27181818 Z M12.5013636,3.81781818 L10.7263636,2.04381818 L10.7272727,3.63636364 C10.7272727,3.71669596 10.7793705,3.7848602 10.8516223,3.80891261 L10.9090909,3.81818182 L12.5013636,3.81781818 Z" id="形状结合" fill="#666666" fill-rule="nonzero"></path>
        </g>
    </g>
</svg>