<?xml version="1.0" encoding="UTF-8"?>
<svg width="12.7272727px" height="15.6363636px" viewBox="0 0 12.7272727 15.6363636" version="1.1" xmlns="http://www.w3.org/2000/svg" xmlns:xlink="http://www.w3.org/1999/xlink">
    <title>PI签字完</title>
    <g id="页面-1" stroke="none" stroke-width="1" fill="none" fill-rule="evenodd">
        <g id="PI签字完" transform="translate(-1.6364, -0.1818)">
            <rect id="矩形" x="0" y="0" width="16" height="16"></rect>
            <path d="M9.88057195,0.181818182 C10.2181202,0.181818182 10.5418434,0.315908706 10.780526,0.554591369 L13.9908632,3.76492851 C14.2295458,4.00361117 14.3636364,4.32733433 14.3636364,4.66488259 L14.3636364,14.5454545 C14.3636364,15.2483624 13.793817,15.8181818 13.0909091,15.8181818 L2.90909091,15.8181818 C2.20618305,15.8181818 1.63636364,15.2483624 1.63636364,14.5454545 L1.63636364,1.45454545 C1.63636364,0.751637591 2.20618305,0.181818182 2.90909091,0.181818182 L9.88057195,0.181818182 Z M9.63536364,1.27181818 L2.90909091,1.27272727 C2.8086755,1.27272727 2.72727273,1.35413005 2.72727273,1.45454545 L2.72727273,14.5454545 C2.72727273,14.64587 2.8086755,14.7272727 2.90909091,14.7272727 L13.0909091,14.7272727 C13.1913245,14.7272727 13.2727273,14.64587 13.2727273,14.5454545 L13.2723636,4.90881818 L10.9090909,4.90909091 C10.2501148,4.90909091 9.70811094,4.40827307 9.64293458,3.76649261 L9.63636364,3.63636364 L9.63536364,1.27181818 Z M8.76661691,7.01470393 L10.2246841,8.47355711 L6.87073659,11.8275046 C6.79056255,11.9076786 6.69231004,11.9579839 6.59012744,11.9831366 L5.04481206,12.4814733 C4.96542403,12.5034818 4.87817581,12.4846173 4.81608023,12.4225217 C4.75319862,12.3596401 4.73433414,12.2692478 4.75634271,12.1867157 L5.25782349,10.6500466 C5.28140409,10.547078 5.33249539,10.4488254 5.41266943,10.3686514 L8.76661691,7.01470393 Z M10.7945486,6.20353126 L10.9140236,6.31593212 L11.0303546,6.43933727 C11.3392605,6.76789364 11.3714873,7.32596786 11.1411834,7.55627173 L10.7835443,7.91391085 L9.32547715,6.45584369 L9.68311627,6.09820457 C9.91263412,5.8679007 10.4832847,5.89226732 10.7945486,6.20353126 Z M12.5013636,3.81781818 L10.7263636,2.04381818 L10.7272727,3.63636364 C10.7272727,3.71669596 10.7793705,3.7848602 10.8516223,3.80891261 L10.9090909,3.81818182 L12.5013636,3.81781818 Z" id="形状结合" fill="#22AF53"></path>
        </g>
    </g>
</svg>