<?xml version="1.0" encoding="UTF-8"?>
<svg width="12.7272727px" height="15.6363636px" viewBox="0 0 12.7272727 15.6363636" version="1.1" xmlns="http://www.w3.org/2000/svg" xmlns:xlink="http://www.w3.org/1999/xlink">
    <title>审核通过</title>
    <g id="页面-1" stroke="none" stroke-width="1" fill="none" fill-rule="evenodd">
        <g id="审核通过" transform="translate(-1.6364, -0.1818)">
            <rect id="矩形" x="0" y="0" width="16" height="16"></rect>
            <path d="M9.88057195,0.181818182 C10.2181202,0.181818182 10.5418434,0.315908706 10.780526,0.554591369 L13.9908632,3.76492851 C14.2295458,4.00361117 14.3636364,4.32733433 14.3636364,4.66488259 L14.3636364,14.5454545 C14.3636364,15.2483624 13.793817,15.8181818 13.0909091,15.8181818 L2.90909091,15.8181818 C2.20618305,15.8181818 1.63636364,15.2483624 1.63636364,14.5454545 L1.63636364,1.45454545 C1.63636364,0.751637591 2.20618305,0.181818182 2.90909091,0.181818182 L9.88057195,0.181818182 Z M9.63536364,1.27181818 L2.90909091,1.27272727 C2.8086755,1.27272727 2.72727273,1.35413005 2.72727273,1.45454545 L2.72727273,14.5454545 C2.72727273,14.64587 2.8086755,14.7272727 2.90909091,14.7272727 L13.0909091,14.7272727 C13.1913245,14.7272727 13.2727273,14.64587 13.2727273,14.5454545 L13.2723636,4.90881818 L10.9090909,4.90909091 C10.2501148,4.90909091 9.70811094,4.40827307 9.64293458,3.76649261 L9.63636364,3.63636364 L9.63536364,1.27181818 Z M11.2435581,11.7090795 L11.2435581,12.4363604 L4.50429461,12.4363604 L4.50429461,11.7090795 L11.2435581,11.7090795 Z M7.87396695,5.16363312 C9.02834361,5.16363312 9.74596203,5.90179435 9.74596203,6.81712727 C9.74596203,7.89477285 8.77094936,8.31553531 8.8411847,9.19424842 C8.85831725,9.40901428 8.96306129,9.60063902 9.1105149,9.76969102 L10.7455774,9.76969102 C11.0206725,9.76969102 11.2436393,9.98624321 11.2436393,10.2533811 L11.2436393,11.2242527 L4.5043758,11.2242527 L4.5043758,10.2533811 C4.5043758,9.98624321 4.72734256,9.76969102 5.00235654,9.76969102 L6.6373378,9.76969102 C6.78479141,9.60063902 6.88953544,9.40909548 6.90666799,9.19424842 C6.97690333,8.3156165 6.00189067,7.89485404 6.00189067,6.81712727 C6.00189067,5.90179435 6.71950908,5.16363312 7.87396695,5.16363312 Z M12.5013636,3.81781818 L10.7263636,2.04381818 L10.7272727,3.63636364 C10.7272727,3.71669596 10.7793705,3.7848602 10.8516223,3.80891261 L10.9090909,3.81818182 L12.5013636,3.81781818 Z" id="形状结合" fill="#22AF53" fill-rule="nonzero"></path>
        </g>
    </g>
</svg>