<?xml version="1.0" encoding="UTF-8"?>
<svg width="12.7272727px" height="15.6363636px" viewBox="0 0 12.7272727 15.6363636" version="1.1" xmlns="http://www.w3.org/2000/svg" xmlns:xlink="http://www.w3.org/1999/xlink">
    <title>锁定</title>
    <g id="页面-1" stroke="none" stroke-width="1" fill="none" fill-rule="evenodd">
        <g id="锁定" transform="translate(-1.6364, -0.1818)">
            <rect id="矩形" x="0" y="0" width="16" height="16"></rect>
            <g id="编组备份-2" transform="translate(4.3463, 0.5455)" fill="#22AF53" fill-rule="nonzero">
                <path d="M3.65367965,4.42279781 C5.05821883,4.42279781 6.21758106,5.4514921 6.26698342,6.7629917 L6.26896686,6.86179496 C6.85723723,6.95357498 7.3073593,7.4624604 7.3073593,8.07647746 L7.3073593,11.1933606 C7.3073593,11.87236 6.75692151,12.4227978 6.07792208,12.4227978 L1.22943722,12.4227978 C0.550437794,12.4227978 0,11.87236 0,11.1933606 L0,8.07647746 C0,7.4624604 0.45012207,6.95357498 1.03839244,6.86179496 L1.03896103,6.84496231 C1.03896103,5.50041484 2.21489065,4.42279781 3.65367965,4.42279781 Z M6.07792208,7.92063331 L1.22943722,7.92063331 C1.14336688,7.92063331 1.07359307,7.99040711 1.07359307,8.07647746 L1.07359307,11.1933606 C1.07359307,11.2794309 1.14336688,11.3492047 1.22943722,11.3492047 L6.07792208,11.3492047 C6.16399242,11.3492047 6.23376623,11.2794309 6.23376623,11.1933606 L6.23376623,8.07647746 C6.23376623,7.99040711 6.16399242,7.92063331 6.07792208,7.92063331 Z M3.65367965,8.42279701 C3.96722494,8.42265478 4.24176146,8.63315935 4.3229897,8.9360003 C4.40421795,9.23884126 4.2718766,9.55847893 4.00034632,9.71526534 L4,10.5007199 C4,10.6919873 3.8449471,10.8470402 3.65367965,10.8470402 C3.4624122,10.8470402 3.3073593,10.6919873 3.3073593,10.5007199 L3.3073593,9.71526534 C3.03588484,9.55851109 2.90353534,9.23896664 2.9846712,8.93616762 C3.06580706,8.63336859 3.34019875,8.42279701 3.65367965,8.42279701 Z M3.65367965,5.49639088 C2.82244171,5.49639088 2.15024368,6.07281523 2.11422681,6.78008869 L2.11255411,6.84496231 L5.19429099,6.84660733 C5.19480519,6.10828166 4.51079906,5.49639088 3.65367965,5.49639088 Z M9.1082251,4.36363636 C9.40947133,4.36363636 9.65367965,4.11942805 9.65367965,3.81818182 C9.65367965,3.51693559 9.40947133,3.27272727 9.1082251,3.27272727 L6.56277056,3.27272727 C6.46235515,3.27272727 6.38095238,3.1913245 6.38095238,3.09090909 L6.38095238,0.545454545 C6.38095238,0.244208318 6.13674406,0 5.83549783,0 C5.5342516,0 5.29004329,0.244208318 5.29004329,0.545454545 L5.29004329,3.09090909 C5.29004329,3.79381695 5.8598627,4.36363636 6.56277056,4.36363636 L9.1082251,4.36363636 Z" id="形状结合"></path>
            </g>
            <path d="M13.0909091,0.181818182 C13.793817,0.181818182 14.3636364,0.751637591 14.3636364,1.45454545 L14.3636364,11.3351174 C14.3636364,11.6726657 14.2295458,11.9963888 13.9908632,12.2350715 L10.780526,15.4454086 C10.5418434,15.6840913 10.2181202,15.8181818 9.88057195,15.8181818 L2.90909091,15.8181818 C2.20618305,15.8181818 1.63636364,15.2483624 1.63636364,14.5454545 L1.63636364,1.45454545 C1.63636364,0.751637591 2.20618305,0.181818182 2.90909091,0.181818182 L13.0909091,0.181818182 Z M13.0909091,1.27272727 L2.90909091,1.27272727 C2.8086755,1.27272727 2.72727273,1.35413005 2.72727273,1.45454545 L2.72727273,14.5454545 C2.72727273,14.64587 2.8086755,14.7272727 2.90909091,14.7272727 L9.88057195,14.7272727 C9.92879313,14.7272727 9.9750393,14.7081169 10.0091368,14.6740194 L13.219474,11.4636823 C13.2535715,11.4295848 13.2727273,11.3833386 13.2727273,11.3351174 L13.2727273,1.45454545 C13.2727273,1.35413005 13.1913245,1.27272727 13.0909091,1.27272727 Z" id="矩形备份" fill="#22AF53" fill-rule="nonzero" transform="translate(8, 8) scale(1, -1) translate(-8, -8)"></path>
        </g>
    </g>
</svg>