<?xml version="1.0" encoding="UTF-8"?>
<svg width="13.1002109px" height="15.6412383px" viewBox="0 0 13.1002109 15.6412383" version="1.1" xmlns="http://www.w3.org/2000/svg" xmlns:xlink="http://www.w3.org/1999/xlink">
    <title>树形-数据源黑</title>
    <g id="控件" stroke="none" stroke-width="1" fill="none" fill-rule="evenodd">
        <g id="树形-数据源黑" transform="translate(-1.4499, -0.1825)">
            <rect id="矩形备份" x="0" y="0" width="16" height="16"></rect>
            <path d="M7.85257664,0.182459388 L8.14742336,0.182459388 L8.43995765,0.187563193 L8.72917103,0.197704745 C9.31606418,0.223506206 9.88040974,0.280375728 10.4112851,0.365673542 L10.636722,0.403962559 L10.8891007,0.451924669 L11.145426,0.506513037 C13.1275064,0.952647457 14.4934122,1.83175018 14.548383,2.97591277 L14.5501054,3.04782799 L14.5501054,12.9576879 C14.5501054,14.186072 13.0512809,15.118678 10.8891007,15.5535912 L10.636722,15.6015533 C10.2538808,15.670149 9.85213085,15.7236033 9.43580388,15.7608694 L9.15614053,15.7833038 L8.87244326,15.8008727 C8.5868241,15.815986 8.29558187,15.8236977 8,15.8236977 C7.70441813,15.8236977 7.4131759,15.815986 7.12755674,15.8008727 L6.84385947,15.7833038 L6.56419612,15.7608694 C6.14786915,15.7236033 5.74611924,15.670149 5.36327798,15.6015533 L5.11089929,15.5535912 C2.94871906,15.118678 1.44989456,14.186072 1.44989456,12.9576879 L1.44989456,3.04782799 L1.45161701,2.97591277 C1.50658785,1.83175018 2.87249364,0.952647457 4.85457403,0.506513037 L5.11089929,0.451924669 L5.36327798,0.403962559 C5.88436747,0.310596249 6.44048758,0.245281121 7.02071564,0.210656944 L7.27082897,0.197704745 L7.56004235,0.187563193 L7.85257664,0.182459388 Z M10.8891007,12.2503046 L10.636722,12.2982667 C10.2538808,12.3668623 9.85213085,12.4203167 9.43580388,12.4575828 L9.15614053,12.4800172 L8.87244326,12.4975861 C8.5868241,12.5126993 8.29558187,12.520411 8,12.520411 C7.70441813,12.520411 7.4131759,12.5126993 7.12755674,12.4975861 L6.84385947,12.4800172 L6.56419612,12.4575828 C6.14786915,12.4203167 5.74611924,12.3668623 5.36327798,12.2982667 L5.11089929,12.2503046 C4.06895125,12.0407212 3.18105076,11.7155613 2.54069377,11.2974208 L2.54080365,12.9576879 C2.54080365,13.2505855 2.83626293,13.5553845 3.3501271,13.8280553 L3.49562898,13.9015905 C3.74696414,14.0227112 4.04197697,14.1363668 4.37343097,14.2384224 L4.57661841,14.2982307 C4.68034071,14.3274058 4.78721246,14.3554624 4.89703827,14.3822889 L5.12057075,14.4342688 C5.23424847,14.4594056 5.35074999,14.483238 5.46987994,14.5056541 L5.71158649,14.5485651 C5.79328493,14.5622174 5.87609367,14.5752071 5.9599548,14.5875013 L6.21463753,14.622264 C6.77303986,14.6929189 7.37346022,14.7327886 8,14.7327886 C8.62653978,14.7327886 9.22696014,14.6929189 9.78536247,14.622264 L10.0400452,14.5875013 C10.1239063,14.5752071 10.2067151,14.5622174 10.2884135,14.5485651 L10.5301201,14.5056541 C10.64925,14.483238 10.7657515,14.4594056 10.8794293,14.4342688 L11.1029617,14.3822889 C11.2127875,14.3554624 11.3196593,14.3274058 11.4233816,14.2982307 L11.626569,14.2384224 C11.958023,14.1363668 12.2530359,14.0227112 12.504371,13.9015905 L12.6498729,13.8280553 C13.1403796,13.5677786 13.4318852,13.2782281 13.4573722,12.9976981 L13.4591963,12.9576879 L13.4594594,11.2973208 C12.8190908,11.7155095 11.9311318,12.0407045 10.8891007,12.2503046 Z M11.6679391,12.6072961 C11.9474255,12.6072961 12.173994,12.8338646 12.173994,13.113351 C12.173994,13.3928374 11.9474255,13.6194059 11.6679391,13.6194059 C11.3884527,13.6194059 11.1618843,13.3928374 11.1618843,13.113351 C11.1618843,12.8338646 11.3884527,12.6072961 11.6679391,12.6072961 Z M13.4594594,7.9940342 C12.8190908,8.41222286 11.9311318,8.73741788 10.8891007,8.94701793 L10.636722,8.99498004 C10.2538808,9.0635757 9.85213085,9.11703003 9.43580388,9.15429617 L9.15614053,9.17673053 L8.87244326,9.19429947 C8.5868241,9.20941271 8.29558187,9.21712442 8,9.21712442 C7.70441813,9.21712442 7.4131759,9.20941271 7.12755674,9.19429947 L6.84385947,9.17673053 L6.56419612,9.15429617 C6.14786915,9.11703003 5.74611924,9.0635757 5.36327798,8.99498004 L5.11089929,8.94701793 C4.06895125,8.73743459 3.18105076,8.41227471 2.54069377,7.99413422 L2.54080365,9.65440124 C2.54080365,9.94729884 2.83626293,10.2520978 3.3501271,10.5247687 L3.49562898,10.5983038 C3.74696414,10.7194245 4.04197697,10.8330802 4.37343097,10.9351358 L4.57661841,10.9949441 C4.68034071,11.0241191 4.78721246,11.0521757 4.89703827,11.0790023 L5.12057075,11.1309822 C5.23424847,11.156119 5.35074999,11.1799513 5.46987994,11.2023675 L5.71158649,11.2452785 C5.79328493,11.2589307 5.87609367,11.2719205 5.9599548,11.2842146 L6.21463753,11.3189774 C6.77303986,11.3896322 7.37346022,11.429502 8,11.429502 C8.62653978,11.429502 9.22696014,11.3896322 9.78536247,11.3189774 L10.0400452,11.2842146 C10.1239063,11.2719205 10.2067151,11.2589307 10.2884135,11.2452785 L10.5301201,11.2023675 C10.64925,11.1799513 10.7657515,11.156119 10.8794293,11.1309822 L11.1029617,11.0790023 C11.2127875,11.0521757 11.3196593,11.0241191 11.4233816,10.9949441 L11.626569,10.9351358 C11.958023,10.8330802 12.2530359,10.7194245 12.504371,10.5983038 L12.6498729,10.5247687 C13.1403796,10.264492 13.4318852,9.97494146 13.4573722,9.69441146 L13.4593491,9.64909091 L13.4594594,7.9940342 Z M11.6679391,9.34882556 C11.9474255,9.34882556 12.173994,9.57539404 12.173994,9.85488043 C12.173994,10.1343668 11.9474255,10.3609353 11.6679391,10.3609353 C11.3884527,10.3609353 11.1618843,10.1343668 11.1618843,9.85488043 C11.1618843,9.57539404 11.3884527,9.34882556 11.6679391,9.34882556 Z M13.4594594,4.69074757 C12.8567596,5.08433689 12.0347409,5.39555123 11.0713702,5.60554771 L10.8891007,5.64373131 L10.636722,5.69169341 C9.82850159,5.83650647 8.93600925,5.91383779 8,5.91383779 C7.15759168,5.91383779 6.35043205,5.85119942 5.60823151,5.73310303 L5.36327798,5.69169341 L5.11089929,5.64373131 C4.06895125,5.43414796 3.18105076,5.10898808 2.54069377,4.69084759 L2.54080365,6.35111462 C2.54080365,6.64401221 2.83626293,6.9488112 3.3501271,7.22148207 L3.49562898,7.29501721 C3.74696414,7.4161379 4.04197697,7.52979355 4.37343097,7.63184916 L4.57661841,7.69165744 C4.68034071,7.72083249 4.78721246,7.74888912 4.89703827,7.77571566 L5.12057075,7.82769556 C5.23424847,7.85283238 5.35074999,7.8766647 5.46987994,7.89908085 L5.71158649,7.94199188 C5.79328493,7.9556441 5.87609367,7.96863384 5.9599548,7.98092802 L6.21463753,8.01569079 C6.77303986,8.08634562 7.37346022,8.12621533 8,8.12621533 C8.62653978,8.12621533 9.22696014,8.08634562 9.78536247,8.01569079 L10.0400452,7.98092802 C10.1239063,7.96863384 10.2067151,7.9556441 10.2884135,7.94199188 L10.5301201,7.89908085 C10.64925,7.8766647 10.7657515,7.85283238 10.8794293,7.82769556 L11.1029617,7.77571566 C11.2127875,7.74888912 11.3196593,7.72083249 11.4233816,7.69165744 L11.626569,7.63184916 C11.958023,7.52979355 12.2530359,7.4161379 12.504371,7.29501721 L12.6498729,7.22148207 C13.1403796,6.96120533 13.4318852,6.67165483 13.4573722,6.39112483 L13.4591963,6.35111462 L13.4594594,4.69074757 Z M11.6679391,6.09035497 C11.9474255,6.09035497 12.173994,6.31692346 12.173994,6.59640984 C12.173994,6.87589623 11.9474255,7.10246471 11.6679391,7.10246471 C11.3884527,7.10246471 11.1618843,6.87589623 11.1618843,6.59640984 C11.1618843,6.31692346 11.3884527,6.09035497 11.6679391,6.09035497 Z M8,1.27272727 C7.4629659,1.27272727 6.94512158,1.30201931 6.456479,1.35488246 L6.21463753,1.38325182 L5.9599548,1.41801458 L5.83495964,1.43697339 L5.71158649,1.45695072 L5.46987994,1.49986175 L5.35163337,1.52274582 L5.12057075,1.57124704 L4.89703827,1.62322694 L4.78820439,1.65045938 L4.68138329,1.67848706 L4.47395317,1.7368289 C3.28860864,2.08575878 2.54080365,2.58185454 2.54080365,3.04782799 C2.54080365,3.32445349 2.80434603,3.61169475 3.26651856,3.87246036 L3.3501271,3.91819544 L3.49562898,3.99173058 C3.71105912,4.09554831 3.95857897,4.19388153 4.23363145,4.28412626 L4.37343097,4.32856253 L4.57661841,4.38837081 L4.73453953,4.43128061 L4.89703827,4.47242903 L5.12057075,4.52440894 L5.29318076,4.56112183 L5.46987994,4.59579422 L5.71158649,4.63870525 L5.83495964,4.65868259 L5.9599548,4.67764139 L6.21463753,4.71240416 C6.77303986,4.78305899 7.37346022,4.8229287 8,4.8229287 C8.5370341,4.8229287 9.05487842,4.79363667 9.543521,4.74077351 L9.78536247,4.71240416 L10.0400452,4.67764139 L10.1650404,4.65868259 L10.2884135,4.63870525 L10.5301201,4.59579422 L10.7068192,4.56112183 L10.8794293,4.52440894 L11.1029617,4.47242903 L11.2654605,4.43128061 L11.4233816,4.38837081 L11.626569,4.32856253 C11.9106725,4.24108629 12.1680028,4.14508758 12.3940029,4.04317035 L12.504371,3.99173058 L12.6498729,3.91819544 C13.1637371,3.64552457 13.4591963,3.34072558 13.4591963,3.04782799 C13.4591963,2.59641621 12.7573989,2.11673534 11.6358816,1.76996682 L11.5260468,1.7368289 L11.3186167,1.67848706 L11.2117956,1.65045938 L11.1029617,1.62322694 L10.8794293,1.57124704 L10.6483666,1.52274582 L10.5301201,1.49986175 L10.2884135,1.45695072 L10.1650404,1.43697339 L10.0400452,1.41801458 L9.78536247,1.38325182 C9.22696014,1.31259699 8.62653978,1.27272727 8,1.27272727 Z" id="形状" fill="#333333" fill-rule="nonzero"></path>
        </g>
    </g>
</svg>